HIERARCHY
ROOT Hip
{
	OFFSET	0.0000	0.0000	0.0000
	CHANNELS 6 Xposition Yposition Zposition Xrotation Yrotation Zrotation
	JOINT LowerSpine
	{
		OFFSET	0.0000	8.3453	-5.1292
		CHANNELS 3 Xrotation Yrotation Zrotation
		JOINT MiddleSpine
		{
			OFFSET	10.8569	0.0000	0.0000
			CHANNELS 3 Xrotation Yrotation Zrotation
			JOINT Chest
			{
				OFFSET	15.2984	0.0000	0.0000
				CHANNELS 3 Xrotation Yrotation Zrotation
				JOINT Neck
				{
					OFFSET	25.6618	-0.5986	0.0000
					CHANNELS 3 Xrotation Yrotation Zrotation
					JOINT Head
					{
						OFFSET	8.8829	0.0000	0.0000
						CHANNELS 3 Xrotation Yrotation Zrotation
						End Site
						{
							OFFSET	19.7399	0.0000	0.0000
						}
					}
				}
				JOINT RClavicle
				{
					OFFSET	23.6878	0.0000	3.1584
					CHANNELS 3 Xrotation Yrotation Zrotation
					JOINT RShoulder
					{
						OFFSET	-15.5945	-3.9480	0.9870
						CHANNELS 3 Xrotation Yrotation Zrotation
						JOINT RForearm
						{
							OFFSET	-31.3370	0.0000	0.1974
							CHANNELS 3 Xrotation Yrotation Zrotation
							JOINT RHand
							{
								OFFSET	-26.4021	0.0000	0.0000
								CHANNELS 3 Xrotation Yrotation Zrotation
								End Site
								{
									OFFSET	-15.7919	-0.9870	0.0000
								}
							}
						}
					}
				}
				JOINT LClavicle
				{
					OFFSET	23.6878	0.0000	-3.1584
					CHANNELS 3 Xrotation Yrotation Zrotation
					JOINT LShoulder
					{
						OFFSET	-15.5945	-3.9480	-0.9870
						CHANNELS 3 Xrotation Yrotation Zrotation
						JOINT LForearm
						{
							OFFSET	-31.3370	0.0000	-0.1974
							CHANNELS 3 Xrotation Yrotation Zrotation
							JOINT LHand
							{
								OFFSET	-26.4021	0.0000	0.0000
								CHANNELS 3 Xrotation Yrotation Zrotation
								End Site
								{
									OFFSET	-15.7919	-0.9870	0.0000
								}
							}
						}
					}
				}
			}
		}
	}
	JOINT RThigh
	{
		OFFSET	-8.8829	0.4481	0.0000
		CHANNELS 3 Xrotation Yrotation Zrotation
		JOINT RShin
		{
			OFFSET	43.1316	0.0000	-0.4935
			CHANNELS 3 Xrotation Yrotation Zrotation
			JOINT RFoot
			{
				OFFSET	0.0000	-44.7256	-0.4047
				CHANNELS 3 Xrotation Yrotation Zrotation
				JOINT RToe
				{
					OFFSET	0.0000	-3.9332	12.1953
					CHANNELS 3 Xrotation Yrotation Zrotation
					End Site
					{
						OFFSET	6.7725	0.0000	0.0000
					}
				}
			}
		}
	}
	JOINT LThigh
	{
		OFFSET	8.8829	0.4481	0.0000
		CHANNELS 3 Xrotation Yrotation Zrotation
		JOINT LShin
		{
			OFFSET	43.1316	0.0000	0.4935
			CHANNELS 3 Xrotation Yrotation Zrotation
			JOINT LFoot
			{
				OFFSET	0.0000	-44.7256	0.4047
				CHANNELS 3 Xrotation Yrotation Zrotation
				JOINT LToe
				{
					OFFSET	0.0000	-3.9332	-12.1953
					CHANNELS 3 Xrotation Yrotation Zrotation
					End Site
					{
						OFFSET	6.7725	0.0000	0.0000
					}
				}
			}
		}
	}
}
MOTION
Frames:	5
Frame Time: 0.0169491000
	0.0000	93.1363	0.0000	0.000000	0.000000	0.000000	-89.999990	-90.000000	0.000000	0.000000	0.000000	0.000000	0.000000	0.000000	0.000000	0.000000	0.000000	0.000000	0.000000	0.000000	0.000000	89.999990	0.000003	-89.999990	0.129889	-2.857029	4.156837	0.255388	4.965908	-5.884634	0.000000	0.000000	0.000000	-89.999990	-0.000003	-89.999990	-0.129889	2.857029	4.156894	-0.255388	-4.965908	-5.884634	0.000000	0.000000	0.000000	-89.999990	90.000000	0.000000	89.999990	-0.000003	89.999990	0.000000	0.000000	0.000000	180.000000	90.000000	0.000000	-89.999990	90.000000	0.000000	-90.000000	-0.000003	89.999990	0.000000	0.000000	0.000000	180.000000	-90.000000	0.000000
	6.7434	93.2027	-0.0607	-2.685753	3.747140	1.383600	-89.999990	-90.000000	0.000000	0.055289	-0.124817	0.258989	0.187250	-0.414730	0.864237	0.000000	0.000000	0.000000	0.000000	0.000000	0.000000	89.996130	-0.111134	-88.506420	-14.170230	-3.321180	6.085572	2.472941	24.875110	-6.464401	0.000000	0.000000	0.000000	-89.999530	0.009957	-89.866080	17.564600	-0.465017	6.604692	-2.132881	-22.092760	-6.328850	0.000000	0.000000	0.000000	-115.754600	87.850040	30.666110	89.931550	7.626626	89.996750	-5.364424	0.031741	0.023990	175.842700	90.000000	0.000000	-141.594500	88.877640	55.542430	-89.937130	-7.007509	89.996670	3.481268	0.104595	-0.033827	184.582300	-90.000000	0.000000
	6.6443	92.9564	-0.2002	-3.071145	2.780988	1.361573	-89.999990	-90.000000	0.000000	0.078128	-0.085961	0.152824	0.261345	-0.284596	0.510438	0.000000	0.000000	0.000000	0.000000	0.000000	0.000000	89.995690	-0.134877	-88.187510	-15.232080	-1.933001	9.761994	2.231550	22.912190	-6.366614	0.000000	0.000000	0.000000	-89.998830	0.026004	-89.650410	12.971620	-0.155695	7.258844	-1.999213	-20.967250	-6.279793	0.000000	0.000000	0.000000	-124.451200	88.107720	39.587230	89.929630	7.839262	89.996800	-7.557779	-0.317353	-0.114598	178.081300	90.000000	0.000000	-142.672900	89.415060	56.927720	-89.933500	-7.409924	89.996710	5.629579	0.136881	-0.055026	182.418500	-90.000000	0.000000
	6.5826	92.6624	-0.3526	-3.364333	1.737930	1.389722	-89.999990	-90.000000	0.000000	0.099494	-0.052152	0.062053	0.331024	-0.170590	0.207486	0.000000	0.000000	0.000000	0.000000	0.000000	0.000000	89.995280	-0.167817	-87.745000	-15.727500	-0.320217	12.484430	1.968684	20.707740	-6.268934	0.000000	0.000000	0.000000	-89.998270	0.040062	-89.461430	7.603152	0.407132	7.865033	-1.967282	-20.695810	-6.268438	0.000000	0.000000	0.000000	-135.301900	88.234090	50.345500	89.922600	8.617805	89.997010	-9.585052	-0.419505	-0.163659	179.452700	90.000000	0.000000	-85.413060	90.000000	0.000000	-89.932360	-7.537589	89.996730	7.370697	0.252793	-0.117532	180.911600	-90.000000	0.000000
	6.5703	92.4714	-0.4766	-3.526948	0.967446	1.463407	-89.999990	-90.000000	0.000000	0.118107	-0.023452	-0.008442	0.391559	-0.072840	-0.028728	0.000000	0.000000	0.000000	0.000000	0.000000	0.000000	89.995150	-0.214581	-87.116930	-15.367770	0.230422	14.278330	1.808165	19.328680	-6.213982	0.000000	0.000000	0.000000	-89.997820	0.052340	-89.296410	3.740121	1.053668	9.159164	-2.069571	-21.561870	-6.305311	0.000000	0.000000	0.000000	-143.996300	88.276910	58.727750	89.913960	9.571359	89.997400	-10.787950	-0.260420	-0.097224	179.915100	90.000000	0.000000	26.417090	89.299310	-111.606900	-89.931900	-7.588752	89.996740	8.154891	0.409299	-0.192555	180.414700	-90.000000	0.000000
